# xmcd
#
# Track frame offsets: 
#        150
#        20095
#        35025
#        55528
#        70079
#        90694
#        105818
#        121396
#        138827
#        158929
#        174562
#        192131
#        211206
#        230826
#        245031
#        263522
#        279617
#        299298
#        315072
#        330531
#
# Disc length: 4652 seconds
#
# Revision: 0
# Processed by: cddbd v1.5.2PL0 Copyright (c) Steve Scherf et al.
# Submitted via: ExactAudioCopy v1.0b3
#
DISCID=16122a14
DTITLE=Виктор Калина - The Best
DYEAR=1900
DGENRE=
TTITLE0=Гражданка-Осень
TTITLE1=Ну и что ж
TTITLE2=Северный ветер
TTITLE3=Обломись, мусорок
TTITLE4=Генералы дворов
TTITLE5=Калина
TTITLE6=За друзей
TTITLE7=Домой
TTITLE8=Злые вороны
TTITLE9=Ты одна
TTITLE10=Бутырка
TTITLE11=Гармонь-подруга
TTITLE12=Ветер северный-2
TTITLE13=Женщина-беда
TTITLE14=Не зови
TTITLE15=Люблю жену
TTITLE16=Володарка
TTITLE17=Коляда
TTITLE18=Лето-Казанова
TTITLE19=Не значит
EXTD=
EXTT0=
EXTT1=
EXTT2=
EXTT3=
EXTT4=
EXTT5=
EXTT6=
EXTT7=
EXTT8=
EXTT9=
EXTT10=
EXTT11=
EXTT12=
EXTT13=
EXTT14=
EXTT15=
EXTT16=
EXTT17=
EXTT18=
EXTT19=
PLAYORDER=
